<mxfile host="app.diagrams.net" modified="2024-02-21T15:39:12.833Z" agent="Mozilla/5.0 (Windows NT 10.0; Win64; x64) AppleWebKit/537.36 (KHTML, like Gecko) Chrome/121.0.0.0 Safari/537.36 OPR/107.0.0.0" etag="N2pMiiWYi_GiIuxgBdu1" version="23.1.5" type="github">
  <diagram name="PÃ¡gina-1" id="pvus-Yov1ZZ_Qm5ej4L0">
    <mxGraphModel dx="1627" dy="964" grid="1" gridSize="10" guides="1" tooltips="1" connect="1" arrows="1" fold="1" page="1" pageScale="1" pageWidth="827" pageHeight="1169" math="0" shadow="0">
      <root>
        <mxCell id="0" />
        <mxCell id="1" parent="0" />
        <mxCell id="XevxfzPszTZJiyia5Mxh-1" value="2" style="swimlane;" parent="1" vertex="1">
          <mxGeometry x="140" y="250" width="600" height="1100" as="geometry" />
        </mxCell>
        <mxCell id="XevxfzPszTZJiyia5Mxh-2" value="" style="rounded=0;whiteSpace=wrap;html=1;" parent="XevxfzPszTZJiyia5Mxh-1" vertex="1">
          <mxGeometry x="510" y="30" width="80" height="20" as="geometry" />
        </mxCell>
        <mxCell id="XevxfzPszTZJiyia5Mxh-3" value="" style="rounded=0;whiteSpace=wrap;html=1;" parent="XevxfzPszTZJiyia5Mxh-1" vertex="1">
          <mxGeometry x="420" y="30" width="80" height="20" as="geometry" />
        </mxCell>
        <mxCell id="XevxfzPszTZJiyia5Mxh-4" value="" style="rounded=0;whiteSpace=wrap;html=1;" parent="XevxfzPszTZJiyia5Mxh-1" vertex="1">
          <mxGeometry x="40" y="90" width="110" height="30" as="geometry" />
        </mxCell>
        <mxCell id="XevxfzPszTZJiyia5Mxh-6" value="" style="rounded=0;whiteSpace=wrap;html=1;" parent="XevxfzPszTZJiyia5Mxh-1" vertex="1">
          <mxGeometry x="40" y="130" width="110" height="180" as="geometry" />
        </mxCell>
        <mxCell id="XevxfzPszTZJiyia5Mxh-7" value="" style="rounded=0;whiteSpace=wrap;html=1;" parent="XevxfzPszTZJiyia5Mxh-1" vertex="1">
          <mxGeometry x="180" y="130" width="110" height="180" as="geometry" />
        </mxCell>
        <mxCell id="XevxfzPszTZJiyia5Mxh-8" value="" style="rounded=0;whiteSpace=wrap;html=1;" parent="XevxfzPszTZJiyia5Mxh-1" vertex="1">
          <mxGeometry x="310" y="130" width="110" height="180" as="geometry" />
        </mxCell>
        <mxCell id="XevxfzPszTZJiyia5Mxh-9" value="" style="rounded=0;whiteSpace=wrap;html=1;" parent="XevxfzPszTZJiyia5Mxh-1" vertex="1">
          <mxGeometry x="440" y="130" width="110" height="180" as="geometry" />
        </mxCell>
        <mxCell id="XevxfzPszTZJiyia5Mxh-10" value="" style="rounded=0;whiteSpace=wrap;html=1;" parent="XevxfzPszTZJiyia5Mxh-1" vertex="1">
          <mxGeometry x="450" y="95" width="100" height="20" as="geometry" />
        </mxCell>
        <mxCell id="XevxfzPszTZJiyia5Mxh-12" value="" style="rounded=0;whiteSpace=wrap;html=1;" parent="XevxfzPszTZJiyia5Mxh-1" vertex="1">
          <mxGeometry x="45" y="750" width="510" height="310" as="geometry" />
        </mxCell>
        <mxCell id="XevxfzPszTZJiyia5Mxh-13" value="" style="rounded=0;whiteSpace=wrap;html=1;" parent="XevxfzPszTZJiyia5Mxh-1" vertex="1">
          <mxGeometry x="45" y="700" width="120" height="30" as="geometry" />
        </mxCell>
        <mxCell id="XevxfzPszTZJiyia5Mxh-15" value="" style="rounded=0;whiteSpace=wrap;html=1;" parent="XevxfzPszTZJiyia5Mxh-1" vertex="1">
          <mxGeometry x="50" y="325" width="90" height="20" as="geometry" />
        </mxCell>
        <mxCell id="XevxfzPszTZJiyia5Mxh-16" value="" style="rounded=0;whiteSpace=wrap;html=1;" parent="XevxfzPszTZJiyia5Mxh-1" vertex="1">
          <mxGeometry x="190" y="325" width="90" height="20" as="geometry" />
        </mxCell>
        <mxCell id="XevxfzPszTZJiyia5Mxh-17" value="" style="rounded=0;whiteSpace=wrap;html=1;" parent="XevxfzPszTZJiyia5Mxh-1" vertex="1">
          <mxGeometry x="320" y="325" width="90" height="20" as="geometry" />
        </mxCell>
        <mxCell id="XevxfzPszTZJiyia5Mxh-18" value="" style="rounded=0;whiteSpace=wrap;html=1;" parent="XevxfzPszTZJiyia5Mxh-1" vertex="1">
          <mxGeometry x="450" y="325" width="90" height="20" as="geometry" />
        </mxCell>
        <mxCell id="XevxfzPszTZJiyia5Mxh-19" value="" style="rounded=0;whiteSpace=wrap;html=1;" parent="XevxfzPszTZJiyia5Mxh-1" vertex="1">
          <mxGeometry x="290" y="30" width="120" height="20" as="geometry" />
        </mxCell>
        <mxCell id="XevxfzPszTZJiyia5Mxh-20" style="edgeStyle=orthogonalEdgeStyle;rounded=0;orthogonalLoop=1;jettySize=auto;html=1;exitX=0.5;exitY=1;exitDx=0;exitDy=0;" parent="XevxfzPszTZJiyia5Mxh-1" source="XevxfzPszTZJiyia5Mxh-13" target="XevxfzPszTZJiyia5Mxh-13" edge="1">
          <mxGeometry relative="1" as="geometry" />
        </mxCell>
        <mxCell id="XevxfzPszTZJiyia5Mxh-24" value="" style="rounded=0;whiteSpace=wrap;html=1;" parent="XevxfzPszTZJiyia5Mxh-1" vertex="1">
          <mxGeometry x="45" y="390" width="110" height="30" as="geometry" />
        </mxCell>
        <mxCell id="XevxfzPszTZJiyia5Mxh-26" value="" style="rounded=0;whiteSpace=wrap;html=1;" parent="XevxfzPszTZJiyia5Mxh-1" vertex="1">
          <mxGeometry x="45" y="430" width="110" height="180" as="geometry" />
        </mxCell>
        <mxCell id="XevxfzPszTZJiyia5Mxh-27" value="" style="rounded=0;whiteSpace=wrap;html=1;" parent="XevxfzPszTZJiyia5Mxh-1" vertex="1">
          <mxGeometry x="180" y="430" width="110" height="180" as="geometry" />
        </mxCell>
        <mxCell id="XevxfzPszTZJiyia5Mxh-28" value="" style="rounded=0;whiteSpace=wrap;html=1;" parent="XevxfzPszTZJiyia5Mxh-1" vertex="1">
          <mxGeometry x="310" y="430" width="110" height="180" as="geometry" />
        </mxCell>
        <mxCell id="XevxfzPszTZJiyia5Mxh-29" value="" style="rounded=0;whiteSpace=wrap;html=1;" parent="XevxfzPszTZJiyia5Mxh-1" vertex="1">
          <mxGeometry x="445" y="430" width="110" height="180" as="geometry" />
        </mxCell>
        <mxCell id="XevxfzPszTZJiyia5Mxh-30" value="" style="rounded=0;whiteSpace=wrap;html=1;" parent="XevxfzPszTZJiyia5Mxh-1" vertex="1">
          <mxGeometry x="50" y="630" width="90" height="20" as="geometry" />
        </mxCell>
        <mxCell id="XevxfzPszTZJiyia5Mxh-31" value="" style="rounded=0;whiteSpace=wrap;html=1;" parent="XevxfzPszTZJiyia5Mxh-1" vertex="1">
          <mxGeometry x="190" y="630" width="90" height="20" as="geometry" />
        </mxCell>
        <mxCell id="XevxfzPszTZJiyia5Mxh-32" value="" style="rounded=0;whiteSpace=wrap;html=1;" parent="XevxfzPszTZJiyia5Mxh-1" vertex="1">
          <mxGeometry x="320" y="630" width="90" height="20" as="geometry" />
        </mxCell>
        <mxCell id="XevxfzPszTZJiyia5Mxh-33" value="" style="rounded=0;whiteSpace=wrap;html=1;" parent="XevxfzPszTZJiyia5Mxh-1" vertex="1">
          <mxGeometry x="455" y="630" width="90" height="20" as="geometry" />
        </mxCell>
        <mxCell id="XevxfzPszTZJiyia5Mxh-34" value="" style="rounded=0;whiteSpace=wrap;html=1;" parent="XevxfzPszTZJiyia5Mxh-1" vertex="1">
          <mxGeometry x="40" y="30" width="110" height="20" as="geometry" />
        </mxCell>
        <mxCell id="XevxfzPszTZJiyia5Mxh-36" value="2" style="swimlane;" parent="1" vertex="1">
          <mxGeometry x="140" y="1390" width="600" height="1820" as="geometry" />
        </mxCell>
        <mxCell id="XevxfzPszTZJiyia5Mxh-37" value="" style="rounded=0;whiteSpace=wrap;html=1;" parent="XevxfzPszTZJiyia5Mxh-36" vertex="1">
          <mxGeometry x="510" y="30" width="80" height="20" as="geometry" />
        </mxCell>
        <mxCell id="XevxfzPszTZJiyia5Mxh-38" value="" style="rounded=0;whiteSpace=wrap;html=1;" parent="XevxfzPszTZJiyia5Mxh-36" vertex="1">
          <mxGeometry x="420" y="30" width="80" height="20" as="geometry" />
        </mxCell>
        <mxCell id="XevxfzPszTZJiyia5Mxh-51" value="" style="rounded=0;whiteSpace=wrap;html=1;" parent="XevxfzPszTZJiyia5Mxh-36" vertex="1">
          <mxGeometry x="290" y="30" width="120" height="20" as="geometry" />
        </mxCell>
        <mxCell id="XevxfzPszTZJiyia5Mxh-52" style="edgeStyle=orthogonalEdgeStyle;rounded=0;orthogonalLoop=1;jettySize=auto;html=1;exitX=0.5;exitY=1;exitDx=0;exitDy=0;" parent="XevxfzPszTZJiyia5Mxh-36" edge="1">
          <mxGeometry relative="1" as="geometry">
            <mxPoint x="105" y="730" as="sourcePoint" />
            <mxPoint x="105" y="730" as="targetPoint" />
          </mxGeometry>
        </mxCell>
        <mxCell id="XevxfzPszTZJiyia5Mxh-62" value="" style="rounded=0;whiteSpace=wrap;html=1;" parent="XevxfzPszTZJiyia5Mxh-36" vertex="1">
          <mxGeometry x="40" y="30" width="110" height="20" as="geometry" />
        </mxCell>
        <mxCell id="XevxfzPszTZJiyia5Mxh-65" value="" style="rounded=0;whiteSpace=wrap;html=1;" parent="XevxfzPszTZJiyia5Mxh-36" vertex="1">
          <mxGeometry x="20" y="90" width="240" height="60" as="geometry" />
        </mxCell>
        <mxCell id="XevxfzPszTZJiyia5Mxh-68" value="" style="rounded=0;whiteSpace=wrap;html=1;" parent="XevxfzPszTZJiyia5Mxh-36" vertex="1">
          <mxGeometry x="20" y="400" width="560" height="10" as="geometry" />
        </mxCell>
        <mxCell id="XevxfzPszTZJiyia5Mxh-69" value="" style="rounded=0;whiteSpace=wrap;html=1;" parent="XevxfzPszTZJiyia5Mxh-36" vertex="1">
          <mxGeometry x="20" y="440" width="240" height="40" as="geometry" />
        </mxCell>
        <mxCell id="XevxfzPszTZJiyia5Mxh-72" value="" style="rounded=0;whiteSpace=wrap;html=1;" parent="XevxfzPszTZJiyia5Mxh-36" vertex="1">
          <mxGeometry x="20" y="540" width="120" height="60" as="geometry" />
        </mxCell>
        <mxCell id="XevxfzPszTZJiyia5Mxh-73" value="" style="rounded=0;whiteSpace=wrap;html=1;" parent="XevxfzPszTZJiyia5Mxh-36" vertex="1">
          <mxGeometry x="290" y="540" width="120" height="60" as="geometry" />
        </mxCell>
        <mxCell id="XevxfzPszTZJiyia5Mxh-74" value="" style="rounded=0;whiteSpace=wrap;html=1;" parent="XevxfzPszTZJiyia5Mxh-36" vertex="1">
          <mxGeometry x="290" y="650" width="120" height="60" as="geometry" />
        </mxCell>
        <mxCell id="XevxfzPszTZJiyia5Mxh-75" value="" style="rounded=0;whiteSpace=wrap;html=1;" parent="XevxfzPszTZJiyia5Mxh-36" vertex="1">
          <mxGeometry x="20" y="650" width="120" height="60" as="geometry" />
        </mxCell>
        <mxCell id="XevxfzPszTZJiyia5Mxh-76" value="" style="rounded=0;whiteSpace=wrap;html=1;" parent="XevxfzPszTZJiyia5Mxh-36" vertex="1">
          <mxGeometry x="150" y="550" width="120" height="20" as="geometry" />
        </mxCell>
        <mxCell id="XevxfzPszTZJiyia5Mxh-77" value="" style="rounded=0;whiteSpace=wrap;html=1;" parent="XevxfzPszTZJiyia5Mxh-36" vertex="1">
          <mxGeometry x="150" y="580" width="120" height="20" as="geometry" />
        </mxCell>
        <mxCell id="XevxfzPszTZJiyia5Mxh-78" value="" style="rounded=0;whiteSpace=wrap;html=1;" parent="XevxfzPszTZJiyia5Mxh-36" vertex="1">
          <mxGeometry x="150" y="690" width="60" height="20" as="geometry" />
        </mxCell>
        <mxCell id="XevxfzPszTZJiyia5Mxh-79" value="" style="rounded=0;whiteSpace=wrap;html=1;" parent="XevxfzPszTZJiyia5Mxh-36" vertex="1">
          <mxGeometry x="150" y="660" width="120" height="20" as="geometry" />
        </mxCell>
        <mxCell id="XevxfzPszTZJiyia5Mxh-80" value="" style="rounded=0;whiteSpace=wrap;html=1;" parent="XevxfzPszTZJiyia5Mxh-36" vertex="1">
          <mxGeometry x="430" y="660" width="120" height="20" as="geometry" />
        </mxCell>
        <mxCell id="XevxfzPszTZJiyia5Mxh-81" value="" style="rounded=0;whiteSpace=wrap;html=1;" parent="XevxfzPszTZJiyia5Mxh-36" vertex="1">
          <mxGeometry x="430" y="550" width="120" height="20" as="geometry" />
        </mxCell>
        <mxCell id="XevxfzPszTZJiyia5Mxh-82" value="" style="rounded=0;whiteSpace=wrap;html=1;" parent="XevxfzPszTZJiyia5Mxh-36" vertex="1">
          <mxGeometry x="430" y="690" width="100" height="20" as="geometry" />
        </mxCell>
        <mxCell id="XevxfzPszTZJiyia5Mxh-83" value="" style="rounded=0;whiteSpace=wrap;html=1;" parent="XevxfzPszTZJiyia5Mxh-36" vertex="1">
          <mxGeometry x="213" y="760" width="120" height="30" as="geometry" />
        </mxCell>
        <mxCell id="XevxfzPszTZJiyia5Mxh-84" value="" style="rounded=0;whiteSpace=wrap;html=1;" parent="XevxfzPszTZJiyia5Mxh-36" vertex="1">
          <mxGeometry x="20" y="840" width="550" height="10" as="geometry" />
        </mxCell>
        <mxCell id="XevxfzPszTZJiyia5Mxh-85" value="" style="rounded=0;whiteSpace=wrap;html=1;" parent="XevxfzPszTZJiyia5Mxh-36" vertex="1">
          <mxGeometry x="20" y="870" width="160" height="40" as="geometry" />
        </mxCell>
        <mxCell id="XevxfzPszTZJiyia5Mxh-96" value="" style="verticalLabelPosition=bottom;verticalAlign=top;html=1;shape=mxgraph.basic.rect;fillColor2=none;strokeWidth=1;size=20;indent=5;" parent="XevxfzPszTZJiyia5Mxh-36" vertex="1">
          <mxGeometry x="320" y="120" width="50" height="30" as="geometry" />
        </mxCell>
        <mxCell id="XevxfzPszTZJiyia5Mxh-98" value="" style="verticalLabelPosition=bottom;verticalAlign=top;html=1;shape=mxgraph.basic.rect;fillColor2=none;strokeWidth=1;size=20;indent=5;" parent="XevxfzPszTZJiyia5Mxh-36" vertex="1">
          <mxGeometry x="320" y="80" width="90" height="30" as="geometry" />
        </mxCell>
        <mxCell id="Ty9NH3SGxlorBibSR3FR-1" value="" style="rounded=1;whiteSpace=wrap;html=1;" vertex="1" parent="XevxfzPszTZJiyia5Mxh-36">
          <mxGeometry x="120" y="940" width="370" height="40" as="geometry" />
        </mxCell>
        <mxCell id="Ty9NH3SGxlorBibSR3FR-5" value="" style="ellipse;whiteSpace=wrap;html=1;aspect=fixed;" vertex="1" parent="XevxfzPszTZJiyia5Mxh-36">
          <mxGeometry x="28" y="930" width="60" height="60" as="geometry" />
        </mxCell>
        <mxCell id="Ty9NH3SGxlorBibSR3FR-6" value="" style="rounded=1;whiteSpace=wrap;html=1;" vertex="1" parent="XevxfzPszTZJiyia5Mxh-36">
          <mxGeometry x="115" y="1040" width="370" height="40" as="geometry" />
        </mxCell>
        <mxCell id="Ty9NH3SGxlorBibSR3FR-7" value="" style="rounded=1;whiteSpace=wrap;html=1;" vertex="1" parent="XevxfzPszTZJiyia5Mxh-36">
          <mxGeometry x="115" y="1090" width="132" height="40" as="geometry" />
        </mxCell>
        <mxCell id="Ty9NH3SGxlorBibSR3FR-8" value="" style="ellipse;whiteSpace=wrap;html=1;aspect=fixed;" vertex="1" parent="XevxfzPszTZJiyia5Mxh-36">
          <mxGeometry x="28" y="1030" width="60" height="60" as="geometry" />
        </mxCell>
        <mxCell id="Ty9NH3SGxlorBibSR3FR-10" value="" style="rounded=1;whiteSpace=wrap;html=1;" vertex="1" parent="XevxfzPszTZJiyia5Mxh-36">
          <mxGeometry x="115" y="1170" width="370" height="40" as="geometry" />
        </mxCell>
        <mxCell id="Ty9NH3SGxlorBibSR3FR-11" value="" style="ellipse;whiteSpace=wrap;html=1;aspect=fixed;" vertex="1" parent="XevxfzPszTZJiyia5Mxh-36">
          <mxGeometry x="28" y="1160" width="60" height="60" as="geometry" />
        </mxCell>
        <mxCell id="Ty9NH3SGxlorBibSR3FR-15" value="" style="rounded=0;whiteSpace=wrap;html=1;" vertex="1" parent="XevxfzPszTZJiyia5Mxh-36">
          <mxGeometry x="35" y="170" width="120" height="200" as="geometry" />
        </mxCell>
        <mxCell id="Ty9NH3SGxlorBibSR3FR-16" value="" style="rounded=0;whiteSpace=wrap;html=1;" vertex="1" parent="XevxfzPszTZJiyia5Mxh-36">
          <mxGeometry x="500" y="940" width="70" height="40" as="geometry" />
        </mxCell>
        <mxCell id="Ty9NH3SGxlorBibSR3FR-17" value="" style="rounded=0;whiteSpace=wrap;html=1;" vertex="1" parent="XevxfzPszTZJiyia5Mxh-36">
          <mxGeometry x="500" y="1040" width="70" height="40" as="geometry" />
        </mxCell>
        <mxCell id="Ty9NH3SGxlorBibSR3FR-18" value="" style="rounded=0;whiteSpace=wrap;html=1;" vertex="1" parent="XevxfzPszTZJiyia5Mxh-36">
          <mxGeometry x="500" y="1170" width="70" height="40" as="geometry" />
        </mxCell>
        <mxCell id="Ty9NH3SGxlorBibSR3FR-20" value="" style="rounded=0;whiteSpace=wrap;html=1;" vertex="1" parent="XevxfzPszTZJiyia5Mxh-36">
          <mxGeometry x="530" y="1240" width="40" height="30" as="geometry" />
        </mxCell>
        <mxCell id="Ty9NH3SGxlorBibSR3FR-22" value="" style="rounded=0;whiteSpace=wrap;html=1;" vertex="1" parent="XevxfzPszTZJiyia5Mxh-36">
          <mxGeometry x="25" y="1310" width="550" height="10" as="geometry" />
        </mxCell>
        <mxCell id="Ty9NH3SGxlorBibSR3FR-24" value="" style="rounded=0;whiteSpace=wrap;html=1;" vertex="1" parent="XevxfzPszTZJiyia5Mxh-36">
          <mxGeometry x="215" y="1350" width="160" height="50" as="geometry" />
        </mxCell>
        <mxCell id="Ty9NH3SGxlorBibSR3FR-25" value="" style="rounded=0;whiteSpace=wrap;html=1;" vertex="1" parent="XevxfzPszTZJiyia5Mxh-36">
          <mxGeometry x="25" y="1440" width="120" height="200" as="geometry" />
        </mxCell>
        <mxCell id="Ty9NH3SGxlorBibSR3FR-26" value="" style="rounded=0;whiteSpace=wrap;html=1;" vertex="1" parent="XevxfzPszTZJiyia5Mxh-36">
          <mxGeometry x="170" y="1440" width="120" height="200" as="geometry" />
        </mxCell>
        <mxCell id="Ty9NH3SGxlorBibSR3FR-28" value="" style="rounded=0;whiteSpace=wrap;html=1;" vertex="1" parent="XevxfzPszTZJiyia5Mxh-36">
          <mxGeometry x="310" y="1440" width="120" height="200" as="geometry" />
        </mxCell>
        <mxCell id="Ty9NH3SGxlorBibSR3FR-29" value="" style="rounded=0;whiteSpace=wrap;html=1;" vertex="1" parent="XevxfzPszTZJiyia5Mxh-36">
          <mxGeometry x="455" y="1440" width="120" height="200" as="geometry" />
        </mxCell>
        <mxCell id="Ty9NH3SGxlorBibSR3FR-30" value="" style="ellipse;whiteSpace=wrap;html=1;aspect=fixed;" vertex="1" parent="XevxfzPszTZJiyia5Mxh-36">
          <mxGeometry x="40" y="1450" width="90" height="90" as="geometry" />
        </mxCell>
        <mxCell id="Ty9NH3SGxlorBibSR3FR-31" value="" style="ellipse;whiteSpace=wrap;html=1;aspect=fixed;" vertex="1" parent="XevxfzPszTZJiyia5Mxh-36">
          <mxGeometry x="185" y="1450" width="90" height="90" as="geometry" />
        </mxCell>
        <mxCell id="Ty9NH3SGxlorBibSR3FR-32" value="" style="ellipse;whiteSpace=wrap;html=1;aspect=fixed;" vertex="1" parent="XevxfzPszTZJiyia5Mxh-36">
          <mxGeometry x="325" y="1450" width="90" height="90" as="geometry" />
        </mxCell>
        <mxCell id="Ty9NH3SGxlorBibSR3FR-33" value="" style="ellipse;whiteSpace=wrap;html=1;aspect=fixed;" vertex="1" parent="XevxfzPszTZJiyia5Mxh-36">
          <mxGeometry x="470" y="1450" width="90" height="90" as="geometry" />
        </mxCell>
        <mxCell id="Ty9NH3SGxlorBibSR3FR-34" value="" style="rounded=1;whiteSpace=wrap;html=1;" vertex="1" parent="XevxfzPszTZJiyia5Mxh-36">
          <mxGeometry x="37.5" y="1560" width="95" height="20" as="geometry" />
        </mxCell>
        <mxCell id="Ty9NH3SGxlorBibSR3FR-36" value="" style="rounded=1;whiteSpace=wrap;html=1;" vertex="1" parent="XevxfzPszTZJiyia5Mxh-36">
          <mxGeometry x="37.5" y="1590" width="95" height="20" as="geometry" />
        </mxCell>
        <mxCell id="Ty9NH3SGxlorBibSR3FR-37" value="" style="rounded=1;whiteSpace=wrap;html=1;" vertex="1" parent="XevxfzPszTZJiyia5Mxh-36">
          <mxGeometry x="182.5" y="1560" width="95" height="20" as="geometry" />
        </mxCell>
        <mxCell id="Ty9NH3SGxlorBibSR3FR-38" value="" style="rounded=1;whiteSpace=wrap;html=1;" vertex="1" parent="XevxfzPszTZJiyia5Mxh-36">
          <mxGeometry x="322.5" y="1560" width="67.5" height="20" as="geometry" />
        </mxCell>
        <mxCell id="Ty9NH3SGxlorBibSR3FR-39" value="" style="rounded=1;whiteSpace=wrap;html=1;" vertex="1" parent="XevxfzPszTZJiyia5Mxh-36">
          <mxGeometry x="465" y="1560" width="95" height="20" as="geometry" />
        </mxCell>
        <mxCell id="Ty9NH3SGxlorBibSR3FR-40" value="" style="rounded=1;whiteSpace=wrap;html=1;" vertex="1" parent="XevxfzPszTZJiyia5Mxh-36">
          <mxGeometry x="465" y="1590" width="65" height="20" as="geometry" />
        </mxCell>
        <mxCell id="Ty9NH3SGxlorBibSR3FR-43" value="" style="rounded=0;whiteSpace=wrap;html=1;" vertex="1" parent="XevxfzPszTZJiyia5Mxh-36">
          <mxGeometry x="535" y="1690" width="40" height="30" as="geometry" />
        </mxCell>
        <mxCell id="Ty9NH3SGxlorBibSR3FR-44" value="" style="rounded=0;whiteSpace=wrap;html=1;" vertex="1" parent="XevxfzPszTZJiyia5Mxh-36">
          <mxGeometry x="20" y="1760" width="550" height="10" as="geometry" />
        </mxCell>
        <mxCell id="XevxfzPszTZJiyia5Mxh-64" value="" style="edgeStyle=orthogonalEdgeStyle;rounded=0;orthogonalLoop=1;jettySize=auto;html=1;" parent="1" edge="1">
          <mxGeometry relative="1" as="geometry">
            <mxPoint x="640" y="2080" as="targetPoint" />
          </mxGeometry>
        </mxCell>
        <mxCell id="XevxfzPszTZJiyia5Mxh-66" value="" style="rounded=0;whiteSpace=wrap;html=1;" parent="1" vertex="1">
          <mxGeometry x="340" y="1560" width="370" height="200" as="geometry" />
        </mxCell>
      </root>
    </mxGraphModel>
  </diagram>
</mxfile>
